<svg width="326" height="459" viewBox="0 0 326 459" fill="none" xmlns="http://www.w3.org/2000/svg">
<g clip-path="url(#clip0_109_705)">
<path d="M-205 -49H326V482H-205V-49Z" fill="black" fill-opacity="0.05"/>
<path d="M60.5015 459.875C27.251 459.872 -5.2318 449.88 -32.7353 431.195C-60.2389 412.509 -81.4945 385.992 -93.7463 355.081C-105.998 324.17 -108.681 290.291 -101.447 257.837C-94.2134 225.383 -77.3964 195.85 -53.1767 173.069C-23.485 145.125 49.439 94.8125 38.3765 -15.8125C171.127 72.6875 237.502 161.187 104.752 293.937C126.877 293.937 160.064 293.937 215.377 239.289C221.35 256.391 226.439 274.777 226.439 293.937C226.439 337.947 208.956 380.154 177.837 411.273C146.718 442.392 104.511 459.875 60.5015 459.875Z" fill="black" fill-opacity="0.05"/>
</g>
<defs>
<clipPath id="clip0_109_705">
<rect width="531" height="531" fill="white" transform="translate(-205 -49)"/>
</clipPath>
</defs>
</svg>
