<svg width="70" height="101" viewBox="0 0 70 101" fill="none" xmlns="http://www.w3.org/2000/svg">
<path d="M35.0009 100.333C27.9876 100.333 21.1363 98.2252 15.3352 94.284C9.53403 90.3428 5.05073 84.7496 2.46654 78.2298C-0.11765 71.71 -0.683539 64.5642 0.842246 57.7189C2.36803 50.8736 5.91511 44.6445 11.0236 39.8393C17.2863 33.9453 32.6676 23.3333 30.3343 0C58.3343 18.6667 72.3343 37.3333 44.3343 65.3333C49.0009 65.3333 56.0009 65.3333 67.6676 53.8067C68.9276 57.414 70.0009 61.292 70.0009 65.3333C70.0009 74.6159 66.3134 83.5183 59.7497 90.0821C53.1859 96.6458 44.2835 100.333 35.0009 100.333Z" fill="black"/>
</svg>
